custom-analysis
version=1
nRows=4
nColumns=146
inDegrees=no

This file contains tibia displacement and acting force.

Units are S.I. units (seconds, meters, Newtons, ...)
Angles are in degrees.

endheader
time	APT	SIT	knee_angle	aACL_R_force	pACL_R_force	aPCL_R_force	pPCL_R_force	aMCL_R_force	mMCL_R_force	pMCL_R_force	aLCL_R_force	mLCL_R_force	pLCL_R_force	aPCL_L_force	pPCL_L_force	aMCL_L_force	aLCL_L_force	aACL_R_length	pACL_R_length	aPCL_R_length	pPCL_R_length	aMCL_R_length	mMCL_R_length	pMCL_R_length	aLCL_R_length	mLCL_R_length	pLCL_R_length	aPCL_L_length	pPCL_L_length	aMCL_L_length	aLCL_L_length	aACL_R_strain	pACL_R_strain	aPCL_R_strain	pPCL_R_strain	aMCL_R_strain	mMCL_R_strain	pMCL_R_strain	aLCL_R_strain	mLCL_R_strain	pLCL_R_strain	aPCL_L_strain	pPCL_L_strain	aMCL_L_strain	aLCL_L_strain	femur_lat_meniscii_l.femur_lat_l.force.X	femur_lat_meniscii_l.femur_lat_l.force.Y	femur_lat_meniscii_l.femur_lat_l.force.Z	femur_lat_meniscii_l.femur_lat_l.torque.X	femur_lat_meniscii_l.femur_lat_l.torque.Y	femur_lat_meniscii_l.femur_lat_l.torque.Z	femur_lat_meniscii_l.meniscus_lat_l.force.X	femur_lat_meniscii_l.meniscus_lat_l.force.Y	femur_lat_meniscii_l.meniscus_lat_l.force.Z	femur_lat_meniscii_l.meniscus_lat_l.torque.X	femur_lat_meniscii_l.meniscus_lat_l.torque.Y	femur_lat_meniscii_l.meniscus_lat_l.torque.Z	femur_med_meniscii_l.femur_med_l.force.X	femur_med_meniscii_l.femur_med_l.force.Y	femur_med_meniscii_l.femur_med_l.force.Z	femur_med_meniscii_l.femur_med_l.torque.X	femur_med_meniscii_l.femur_med_l.torque.Y	femur_med_meniscii_l.femur_med_l.torque.Z	femur_med_meniscii_l.meniscus_med_l.force.X	femur_med_meniscii_l.meniscus_med_l.force.Y	femur_med_meniscii_l.meniscus_med_l.force.Z	femur_med_meniscii_l.meniscus_med_l.torque.X	femur_med_meniscii_l.meniscus_med_l.torque.Y	femur_med_meniscii_l.meniscus_med_l.torque.Z	femur_lat_meniscii_r.femur_lat_r.force.X	femur_lat_meniscii_r.femur_lat_r.force.Y	femur_lat_meniscii_r.femur_lat_r.force.Z	femur_lat_meniscii_r.femur_lat_r.torque.X	femur_lat_meniscii_r.femur_lat_r.torque.Y	femur_lat_meniscii_r.femur_lat_r.torque.Z	femur_lat_meniscii_r.meniscus_lat_r.force.X	femur_lat_meniscii_r.meniscus_lat_r.force.Y	femur_lat_meniscii_r.meniscus_lat_r.force.Z	femur_lat_meniscii_r.meniscus_lat_r.torque.X	femur_lat_meniscii_r.meniscus_lat_r.torque.Y	femur_lat_meniscii_r.meniscus_lat_r.torque.Z	femur_med_meniscii_r.femur_med_r.force.X	femur_med_meniscii_r.femur_med_r.force.Y	femur_med_meniscii_r.femur_med_r.force.Z	femur_med_meniscii_r.femur_med_r.torque.X	femur_med_meniscii_r.femur_med_r.torque.Y	femur_med_meniscii_r.femur_med_r.torque.Z	femur_med_meniscii_r.meniscus_med_r.force.X	femur_med_meniscii_r.meniscus_med_r.force.Y	femur_med_meniscii_r.meniscus_med_r.force.Z	femur_med_meniscii_r.meniscus_med_r.torque.X	femur_med_meniscii_r.meniscus_med_r.torque.Y	femur_med_meniscii_r.meniscus_med_r.torque.Z	femur_med_tibia_l.tibia_upper_l.force.X	femur_med_tibia_l.tibia_upper_l.force.Y	femur_med_tibia_l.tibia_upper_l.force.Z	femur_med_tibia_l.tibia_upper_l.torque.X	femur_med_tibia_l.tibia_upper_l.torque.Y	femur_med_tibia_l.tibia_upper_l.torque.Z	femur_med_tibia_l.femur_med_l.force.X	femur_med_tibia_l.femur_med_l.force.Y	femur_med_tibia_l.femur_med_l.force.Z	femur_med_tibia_l.femur_med_l.torque.X	femur_med_tibia_l.femur_med_l.torque.Y	femur_med_tibia_l.femur_med_l.torque.Z	femur_lat_tibia_l.tibia_upper_l.force.X	femur_lat_tibia_l.tibia_upper_l.force.Y	femur_lat_tibia_l.tibia_upper_l.force.Z	femur_lat_tibia_l.tibia_upper_l.torque.X	femur_lat_tibia_l.tibia_upper_l.torque.Y	femur_lat_tibia_l.tibia_upper_l.torque.Z	femur_lat_tibia_l.femur_lat_l.force.X	femur_lat_tibia_l.femur_lat_l.force.Y	femur_lat_tibia_l.femur_lat_l.force.Z	femur_lat_tibia_l.femur_lat_l.torque.X	femur_lat_tibia_l.femur_lat_l.torque.Y	femur_lat_tibia_l.femur_lat_l.torque.Z	femur_med_tibia_r.tibia_upper_r.force.X	femur_med_tibia_r.tibia_upper_r.force.Y	femur_med_tibia_r.tibia_upper_r.force.Z	femur_med_tibia_r.tibia_upper_r.torque.X	femur_med_tibia_r.tibia_upper_r.torque.Y	femur_med_tibia_r.tibia_upper_r.torque.Z	femur_med_tibia_r.femur_med_r.force.X	femur_med_tibia_r.femur_med_r.force.Y	femur_med_tibia_r.femur_med_r.force.Z	femur_med_tibia_r.femur_med_r.torque.X	femur_med_tibia_r.femur_med_r.torque.Y	femur_med_tibia_r.femur_med_r.torque.Z	femur_lat_tibia_r.tibia_upper_r.force.X	femur_lat_tibia_r.tibia_upper_r.force.Y	femur_lat_tibia_r.tibia_upper_r.force.Z	femur_lat_tibia_r.tibia_upper_r.torque.X	femur_lat_tibia_r.tibia_upper_r.torque.Y	femur_lat_tibia_r.tibia_upper_r.torque.Z	femur_lat_tibia_r.femur_lat_r.force.X	femur_lat_tibia_r.femur_lat_r.force.Y	femur_lat_tibia_r.femur_lat_r.force.Z	femur_lat_tibia_r.femur_lat_r.torque.X	femur_lat_tibia_r.femur_lat_r.torque.Y	femur_lat_tibia_r.femur_lat_r.torque.Z	femur_lat_meniscii_force_r	femur_med_meniscii_force_r	femur_lat_tibia_force_r	femur_med_tibia_force_r
      0.09123320	      0.01067709	      0.00769219	     29.30964743	     66.28143928	     70.34014251	      0.00000000	      0.00000000	      0.00000000	      0.00000000	      0.00000000	      0.00000000	      0.00000000	      0.00000000	      0.00000000	      0.00000000	      0.00000001	      0.00000000	      0.03350235	      0.02736476	      0.03092096	      0.02934584	      0.05817924	      0.05978452	      0.06055505	      0.05459325	      0.05125332	      0.04760829	      0.01525851	      0.01651186	      0.06550154	      0.04489616	      0.08754448	      0.09202631	     -0.00560671	     -0.01813302	     -0.01436222	     -0.00015010	     -0.00284790	     -0.02472346	     -0.08993969	     -0.09045030	      0.00000079	     -0.32847694	      0.00000060	     -0.00000086	      2.76307435	     50.99597937	     -9.56042239	      5.21997485	     -0.02578839	      1.48581788	     -2.76307435	    -50.99597937	      9.56042239	     -1.74637766	      0.02558040	     -0.48301696	     -3.31599387	     20.97615968	     -3.40468921	      0.94473225	     -0.02138609	     -1.00501789	      3.31599387	    -20.97615968	      3.40468921	      0.28075727	      0.00368718	     -0.29758878	     -9.20417251	    157.35971064	      9.23825458	     -7.51144079	     -0.12642474	     -5.11046774	      9.20417251	   -157.35971064	     -9.23825458	      4.37528287	      0.03863426	      3.48125794	     -2.82465873	    224.34782049	     15.75268353	     -1.70182875	      0.20204390	     -2.71340847	      2.82465873	   -224.34782049	    -15.75268353	     -3.75929539	     -0.38495164	      4.33910866	      0.00000000	      0.00000000	      0.00000000	      0.00000000	      0.00000000	      0.00000000	      0.00000000	      0.00000000	      0.00000000	      0.00000000	      0.00000000	      0.00000000	      0.00000000	      0.00000000	      0.00000000	      0.00000000	      0.00000000	      0.00000000	      0.00000000	      0.00000000	      0.00000000	      0.00000000	      0.00000000	      0.00000000	    -21.94124219	   -681.43320962	      3.56380304	    -12.74683369	      0.43330678	      9.21328343	     21.94124219	    681.43320962	     -3.56380304	     15.87175921	     -0.44689757	      7.42723635	     22.64760945	   -112.89958508	    -28.56105143	      3.74261301	      0.12024729	      2.49976512	    -22.64760945	    112.89958508	     28.56105143	    -14.40245073	     -0.40664880	     -9.82040702	    157.89914715	    224.91791901	    118.63795423	    681.79567172
      0.09165403	      0.01071556	      0.00775329	     29.52895908	     63.66866337	     67.52984832	      0.00000000	      0.00000000	      0.00000000	      0.00000000	      0.00000000	      0.00000000	      0.00000000	      0.00000000	      0.00000000	      0.00000000	      0.00000001	      0.00000000	      0.03347995	      0.02734039	      0.03096217	      0.02937151	      0.05820214	      0.05979044	      0.06054966	      0.05459522	      0.05124137	      0.04758447	      0.01525851	      0.01651186	      0.06550154	      0.04489616	      0.08681744	      0.09105382	     -0.00428121	     -0.01727435	     -0.01397427	     -0.00005115	     -0.00293666	     -0.02468819	     -0.09015186	     -0.09090538	      0.00000079	     -0.32847694	      0.00000060	     -0.00000086	      2.76307435	     50.99597937	     -9.56042239	      5.21997485	     -0.02578839	      1.48581788	     -2.76307435	    -50.99597937	      9.56042239	     -1.74637766	      0.02558040	     -0.48301696	     -3.31599387	     20.97615968	     -3.40468921	      0.94473225	     -0.02138609	     -1.00501789	      3.31599387	    -20.97615968	      3.40468921	      0.28075727	      0.00368718	     -0.29758878	    -10.64177821	    157.34660114	      9.48538493	     -7.61197521	     -0.16173004	     -5.72250824	     10.64177821	   -157.34660114	     -9.48538493	      4.37924101	      0.07390293	      3.55256531	     -4.27134192	    227.40802241	     15.73462228	     -1.62432801	      0.24723839	     -3.35605180	      4.27134192	   -227.40802241	    -15.73462228	     -3.82458218	     -0.42731924	      4.47954059	      0.00000000	      0.00000000	      0.00000000	      0.00000000	      0.00000000	      0.00000000	      0.00000000	      0.00000000	      0.00000000	      0.00000000	      0.00000000	      0.00000000	      0.00000000	      0.00000000	      0.00000000	      0.00000000	      0.00000000	      0.00000000	      0.00000000	      0.00000000	      0.00000000	      0.00000000	      0.00000000	      0.00000000	    -18.32495092	   -669.90540509	      2.95248441	    -12.52842062	      0.35861468	      9.27928824	     18.32495092	    669.90540509	     -2.95248441	     15.38220297	     -0.36985947	      5.88166457	     22.56833390	   -109.72216284	    -27.78515143	      3.63411363	      0.12499271	      2.46479600	    -22.56833390	    109.72216284	     27.78515143	    -14.00618650	     -0.40437400	     -9.78619157	    157.99105311	    227.99173528	    115.41359258	    670.16249728
      0.09222437	      0.01076435	      0.00783738	     29.82642004	     59.80609090	     63.30940531	      0.00000000	      0.00000000	      0.00000000	      7.74660172	      0.00000000	      0.00000000	      0.00000000	      0.00000000	      0.00000000	      0.00000000	      0.00000001	      0.00000000	      0.03344685	      0.02730494	      0.03101890	      0.02940710	      0.05823190	      0.05979735	      0.06054140	      0.05459751	      0.05122477	      0.04755191	      0.01525851	      0.01651186	      0.06550154	      0.04489616	      0.08574290	      0.08963903	     -0.00245700	     -0.01608362	     -0.01347005	      0.00006440	     -0.00307279	     -0.02464730	     -0.09044667	     -0.09152747	      0.00000079	     -0.32847694	      0.00000060	     -0.00000086	      2.76307435	     50.99597937	     -9.56042239	      5.21997485	     -0.02578839	      1.48581788	     -2.76307435	    -50.99597937	      9.56042239	     -1.74637766	      0.02558040	     -0.48301696	     -3.31599387	     20.97615968	     -3.40468921	      0.94473225	     -0.02138609	     -1.00501789	      3.31599387	    -20.97615968	      3.40468921	      0.28075727	      0.00368718	     -0.29758878	    -12.66923393	    158.88747738	      9.75693992	     -7.75705274	     -0.20823609	     -6.59825228	     12.66923393	   -158.88747738	     -9.75693992	      4.42170509	      0.12125540	      3.68379780	     -5.57850191	    232.85079628	     15.00380124	     -1.20518455	      0.28559238	     -3.95988324	      5.57850191	   -232.85079628	    -15.00380124	     -3.95310680	     -0.45488054	      4.66925976	      0.00000000	      0.00000000	      0.00000000	      0.00000000	      0.00000000	      0.00000000	      0.00000000	      0.00000000	      0.00000000	      0.00000000	      0.00000000	      0.00000000	      0.00000000	      0.00000000	      0.00000000	      0.00000000	      0.00000000	      0.00000000	      0.00000000	      0.00000000	      0.00000000	      0.00000000	      0.00000000	      0.00000000	    -14.44065283	   -656.43374391	      2.07122056	    -12.27074856	      0.27372974	      9.35370376	     14.44065283	    656.43374391	     -2.07122056	     14.74259711	     -0.28529730	      4.21402849	     22.09416702	   -106.59517053	    -26.65380613	      3.51174562	      0.12479970	      2.41857678	    -22.09416702	    106.59517053	     26.65380613	    -13.46002803	     -0.39439670	     -9.58683163	    159.69013067	    233.40035789	    112.07634888	    656.59582892
      0.09279471	      0.01080996	      0.00792329	     30.12424928	     56.60296566	     59.66446029	      0.00000000	      0.00000000	      0.00000000	      6.14429337	      0.00000000	      0.00000000	      0.00000000	      0.00000000	      0.00000000	      0.00000000	      0.00000001	      0.00000000	      0.03341087	      0.02726686	      0.03107594	      0.02944295	      0.05825996	      0.05980271	      0.06053173	      0.05459886	      0.05120721	      0.04751852	      0.01525851	      0.01651186	      0.06550154	      0.04489616	      0.08457488	      0.08811959	     -0.00062272	     -0.01488414	     -0.01299473	      0.00015410	     -0.00323197	     -0.02462323	     -0.09075850	     -0.09216521	      0.00000079	     -0.32847694	      0.00000060	     -0.00000086	      2.76307435	     50.99597937	     -9.56042239	      5.21997485	     -0.02578839	      1.48581788	     -2.76307435	    -50.99597937	      9.56042239	     -1.74637766	      0.02558040	     -0.48301696	     -3.31599387	     20.97615968	     -3.40468921	      0.94473225	     -0.02138609	     -1.00501789	      3.31599387	    -20.97615968	      3.40468921	      0.28075727	      0.00368718	     -0.29758878	    -11.90483218	    158.60756562	      9.38626189	     -7.58997760	     -0.19065933	     -6.28808722	     11.90483218	   -158.60756562	     -9.38626189	      4.39365324	      0.10525488	      3.67725944	     -6.89841937	    236.29768456	     14.49672679	     -0.90479859	      0.31756035	     -4.55466242	      6.89841937	   -236.29768456	    -14.49672679	     -4.05382639	     -0.47865996	      4.82098392	      0.00000000	      0.00000000	      0.00000000	      0.00000000	      0.00000000	      0.00000000	      0.00000000	      0.00000000	      0.00000000	      0.00000000	      0.00000000	      0.00000000	      0.00000000	      0.00000000	      0.00000000	      0.00000000	      0.00000000	      0.00000000	      0.00000000	      0.00000000	      0.00000000	      0.00000000	      0.00000000	      0.00000000	    -13.00913625	   -643.83119398	      1.46835013	    -12.03978290	      0.23830932	      9.34078712	     13.00913625	    643.83119398	     -1.46835013	     14.23907539	     -0.25327714	      3.58129806	     21.59802028	   -104.28057779	    -25.65194367	      3.41465170	      0.12306864	      2.38227388	    -21.59802028	    104.28057779	     25.65194367	    -12.98653854	     -0.38426750	     -9.37963206	    159.33043279	    236.84243498	    109.53965309	    643.96428474
